<?xml version="1.0" encoding="UTF-8"?>
<svg width="300px" height="33px" viewBox="0 0 300 33" version="1.1" xmlns="http://www.w3.org/2000/svg" xmlns:xlink="http://www.w3.org/1999/xlink">
    <title>logoNEW</title>
    <g id="Page-1" stroke="none" stroke-width="1" fill="none" fill-rule="evenodd">
        <g id="logoNEW" fill="#000000">
            <path d="M65.7454646,1.27300885 C64.7269912,1.27300885 63.8571903,1.63373894 63.1360619,2.35519912 C62.4146018,3.07632743 62.0538717,3.94612832 62.0538717,4.96460177 C62.0538717,5.98307522 62.4146018,6.85287611 63.1360619,7.57400442 C63.8571903,8.2954646 64.7269912,8.65619469 65.7454646,8.65619469 C66.7639381,8.65619469 67.6337389,8.2954646 68.3548673,7.57400442 C69.0763274,6.85287611 69.4370575,5.98307522 69.4370575,4.96460177 C69.4370575,3.94612832 69.0763274,3.07632743 68.3548673,2.35519912 C67.6337389,1.63373894 66.7639381,1.27300885 65.7454646,1.27300885 L65.7454646,1.27300885 Z M72.8107301,32.0784292 L79.1754425,32.0784292 L79.1754425,0 L72.8107301,0 L72.8107301,32.0784292 Z M98.7580752,21.7675885 C98.7580752,20.2121681 98.3127212,18.9530973 97.4216814,17.9910398 C96.5306416,17.029646 95.2788717,16.5484513 93.6663717,16.5484513 C92.0538717,16.5484513 90.8021018,17.029646 89.9110619,17.9910398 C89.0200221,18.9530973 88.5746681,20.2121681 88.5746681,21.7675885 C88.5746681,23.3236726 89.0200221,24.5827434 89.9110619,25.5438053 C90.8021018,26.5058628 92.0538717,26.9867257 93.6663717,26.9867257 C95.2788717,26.9867257 96.5306416,26.5058628 97.4216814,25.5438053 C98.3127212,24.5827434 98.7580752,23.3236726 98.7580752,21.7675885 L98.7580752,21.7675885 Z M104.231748,17.3120575 C104.825774,18.642146 105.122788,20.1272124 105.122788,21.7675885 C105.122788,23.4082965 104.825774,24.8936947 104.231748,26.2227876 C103.637721,27.5528761 102.824336,28.6911504 101.791925,29.6386062 C100.759181,30.5867257 99.5432522,31.3144912 98.1428097,31.8238938 C96.7426991,32.3329646 95.2503319,32.5875 93.6663717,32.5875 C92.0817478,32.5875 90.5900442,32.3329646 89.1899336,31.8238938 C87.7894912,31.3144912 86.5728982,30.5867257 85.5408186,29.6386062 C84.5077434,28.6911504 83.6950221,27.5528761 83.1009956,26.2227876 C82.506969,24.8936947 82.2099558,23.4082965 82.2099558,21.7675885 C82.2099558,20.1272124 82.506969,18.642146 83.1009956,17.3120575 C83.6950221,15.9829646 84.5077434,14.8446903 85.5408186,13.8965708 C86.5728982,12.949115 87.7894912,12.220354 89.1899336,11.7112832 C90.5900442,11.2018805 92.0817478,10.9473451 93.6663717,10.9473451 C95.2503319,10.9473451 96.7426991,11.2018805 98.1428097,11.7112832 C99.5432522,12.220354 100.759181,12.949115 101.791925,13.8965708 C102.824336,14.8446903 103.637721,15.9829646 104.231748,17.3120575 L104.231748,17.3120575 Z M120.784181,10.9473451 C119.369469,10.9473451 118.195686,11.2655973 117.262168,11.9021018 C116.328982,12.5386062 115.522566,13.4933628 114.843584,14.7663717 L114.75896,14.7663717 L114.75896,11.4567478 L108.394248,11.4567478 L108.394248,32.0784292 L114.75896,32.0784292 L114.75896,23.4647124 C114.75896,22.4465708 114.815376,21.5130531 114.92854,20.6641593 C115.041372,19.8155973 115.28927,19.0878319 115.671239,18.4792035 C116.052876,17.8712389 116.597456,17.3970133 117.304646,17.0575221 C118.011504,16.718031 118.973562,16.5484513 120.190155,16.5484513 C120.670686,16.5484513 121.13031,16.584292 121.569027,16.654646 C122.007412,16.7253319 122.452765,16.8315265 122.905752,16.9728982 L122.905752,11.1597345 C122.594137,11.0747788 122.254646,11.0183628 121.887279,10.989823 C121.51958,10.9619469 121.151549,10.9473451 120.784181,10.9473451 L120.784181,10.9473451 Z M62.5629425,32.0784292 L68.9276549,32.0784292 L68.9276549,11.4567478 L62.5629425,11.4567478 L62.5629425,32.0784292 Z M6.61924779,19.8580752 L19.6460177,19.8580752 L19.6460177,13.7478982 L6.61924779,13.7478982 L6.61924779,8.14679204 L20.4096239,8.14679204 L20.4096239,2.0369469 L0,2.0369469 L0,32.0784292 L21.1735619,32.0784292 L21.1735619,25.9682522 L6.61924779,25.9682522 L6.61924779,19.8580752 Z M37.8414823,20.8340708 C37.0353982,20.3817478 36.1719027,20.0488938 35.2529867,19.8368363 C34.3334071,19.6247788 33.4709071,19.427323 32.664823,19.2428097 C31.8587389,19.059292 31.1936947,18.8469027 30.670354,18.6063053 C30.1466814,18.3663717 29.8855088,17.9910398 29.8855088,17.481969 C29.8855088,16.8600664 30.1400442,16.4210177 30.6494469,16.1664823 C31.1585177,15.9119469 31.6815265,15.7845133 32.2191372,15.7845133 C33.7466814,15.7845133 34.9772124,16.3649336 35.9107301,17.5244469 L39.8143805,13.6629425 C38.8526549,12.6448009 37.678208,11.9379425 36.2926991,11.5413717 C34.9065265,11.1457965 33.5346239,10.9473451 32.1766593,10.9473451 C31.1014381,10.9473451 30.0408186,11.0820796 28.994469,11.3505531 C27.9474558,11.6196903 27.0212389,12.0368363 26.2151549,12.602323 C25.4090708,13.1684735 24.7579646,13.8899336 24.2631637,14.7663717 C23.768031,15.6434735 23.5207965,16.6901549 23.5207965,17.9060841 C23.5207965,19.2076327 23.781969,20.2473451 24.3056416,21.0248894 C24.8289823,21.8034292 25.4936947,22.4040929 26.3001106,22.828208 C27.1061947,23.2526549 27.9686947,23.5709071 28.8882743,23.7829646 C29.8071903,23.995354 30.670354,24.1934735 31.4767699,24.3769912 C32.282854,24.5615044 32.9472345,24.7875 33.4709071,25.0559735 C33.9942478,25.3251106 34.2560841,25.7283186 34.2560841,26.2652655 C34.2560841,26.8314159 33.9590708,27.2200221 33.3650442,27.4320796 C32.7710177,27.644469 32.1059735,27.7503319 31.3705752,27.7503319 C30.4085177,27.7503319 29.5672566,27.5595133 28.8457965,27.1775442 C28.1246681,26.7955752 27.4669248,26.2373894 26.8728982,25.5016593 L23.0117257,29.7872788 C24.0298673,30.8339602 25.2743363,31.5627212 26.7454646,31.9722345 C28.2159292,32.3820796 29.6734513,32.5875 31.1160398,32.5875 C32.2191372,32.5875 33.3365044,32.4816372 34.4681416,32.2692478 C35.599115,32.0571903 36.6175885,31.689823 37.5232301,31.1661504 C38.428208,30.6431416 39.1709071,29.9502212 39.7509956,29.0870575 C40.3304204,28.2245575 40.6207965,27.1284292 40.6207965,25.7986726 C40.6207965,24.4977876 40.3589602,23.4580752 39.8356195,22.6798673 C39.3119469,21.9019912 38.6475664,21.2867257 37.8414823,20.8340708 L37.8414823,20.8340708 Z M56.7029867,20.8340708 C55.8965708,20.3817478 55.0334071,20.0488938 54.1144912,19.8368363 C53.1949115,19.6247788 52.3324115,19.427323 51.5263274,19.2428097 C50.7199115,19.059292 50.0551991,18.8469027 49.5318584,18.6063053 C49.0081858,18.3663717 48.7470133,17.9910398 48.7470133,17.481969 C48.7470133,16.8600664 49.0015487,16.4210177 49.5106195,16.1664823 C50.0200221,15.9119469 50.543031,15.7845133 51.0806416,15.7845133 C52.6081858,15.7845133 53.8387168,16.3649336 54.7722345,17.5244469 L58.675885,13.6629425 C57.7138274,12.6448009 56.5397124,11.9379425 55.1542035,11.5413717 C53.7676991,11.1457965 52.3961283,10.9473451 51.0381637,10.9473451 C49.9629425,10.9473451 48.9019912,11.0820796 47.8559735,11.3505531 C46.8089602,11.6196903 45.8827434,12.0368363 45.0766593,12.602323 C44.2702434,13.1684735 43.619469,13.8899336 43.1246681,14.7663717 C42.6295354,15.6434735 42.3823009,16.6901549 42.3823009,17.9060841 C42.3823009,19.2076327 42.6434735,20.2473451 43.167146,21.0248894 C43.6901549,21.8034292 44.3551991,22.4040929 45.161615,22.828208 C45.9676991,23.2526549 46.8301991,23.5709071 47.7497788,23.7829646 C48.6686947,23.995354 49.5318584,24.1934735 50.3382743,24.3769912 C51.1443584,24.5615044 51.8087389,24.7875 52.3324115,25.0559735 C52.8554204,25.3251106 53.1172566,25.7283186 53.1172566,26.2652655 C53.1172566,26.8314159 52.8202434,27.2200221 52.2262168,27.4320796 C51.6321903,27.644469 50.967146,27.7503319 50.2320796,27.7503319 C49.2700221,27.7503319 48.4287611,27.5595133 47.7073009,27.1775442 C46.9861726,26.7955752 46.3284292,26.2373894 45.7344027,25.5016593 L41.8728982,29.7872788 C42.8913717,30.8339602 44.1358407,31.5627212 45.606969,31.9722345 C47.0774336,32.3820796 48.5349558,32.5875 49.9775442,32.5875 C51.0806416,32.5875 52.197677,32.4816372 53.329646,32.2692478 C54.4606195,32.0571903 55.4790929,31.689823 56.3847345,31.1661504 C57.2897124,30.6431416 58.0320796,29.9502212 58.6121681,29.0870575 C59.1919248,28.2245575 59.4823009,27.1284292 59.4823009,25.7986726 C59.4823009,24.4977876 59.2201327,23.4580752 58.6971239,22.6798673 C58.1734513,21.9019912 57.5090708,21.2867257 56.7029867,20.8340708 L56.7029867,20.8340708 Z M209.215487,21.7675885 C209.215487,20.2121681 208.769801,18.9530973 207.878761,17.9910398 C206.987721,17.029646 205.735951,16.5484513 204.123451,16.5484513 C202.511283,16.5484513 201.259513,17.029646 200.368473,17.9910398 C199.477434,18.9530973 199.031748,20.2121681 199.031748,21.7675885 C199.031748,23.3233407 199.477434,24.5824115 200.368473,25.5438053 C201.259513,26.5058628 202.511283,26.9867257 204.123451,26.9867257 C205.735951,26.9867257 206.987721,26.5058628 207.878761,25.5438053 C208.769801,24.5824115 209.215487,23.3233407 209.215487,21.7675885 L209.215487,21.7675885 Z M214.689159,17.3120575 C215.283186,18.642146 215.580199,20.1272124 215.580199,21.7675885 C215.580199,23.4082965 215.283186,24.8933628 214.689159,26.2227876 C214.095133,27.5528761 213.281416,28.6911504 212.249336,29.6386062 C211.216261,30.5867257 210.000332,31.3144912 208.600221,31.8238938 C207.199779,32.3329646 205.707412,32.5875 204.123451,32.5875 C202.539159,32.5875 201.047456,32.3329646 199.647013,31.8238938 C198.246903,31.3144912 197.03031,30.5867257 195.997898,29.6386062 C194.964823,28.6911504 194.152102,27.5528761 193.558075,26.2227876 C192.964049,24.8933628 192.667035,23.4082965 192.667035,21.7675885 C192.667035,20.1272124 192.964049,18.642146 193.558075,17.3120575 C194.152102,15.9829646 194.964823,14.8443584 195.997898,13.8962389 C197.03031,12.949115 198.246903,12.220354 199.647013,11.7112832 C201.047456,11.2018805 202.539159,10.9473451 204.123451,10.9473451 C205.707412,10.9473451 207.199779,11.2018805 208.600221,11.7112832 C210.000332,12.220354 211.216261,12.949115 212.249336,13.8962389 C213.281416,14.8443584 214.095133,15.9829646 214.689159,17.3120575 L214.689159,17.3120575 Z M241.906527,5.3465708 L235.541482,5.3465708 L235.541482,11.4567478 L232.378872,11.4567478 L231.468584,11.4567478 L226.777765,11.4567478 L226.777765,5.3465708 L220.413053,5.3465708 L220.413053,11.4567478 L216.339823,11.4567478 L216.339823,17.0316372 L220.413053,17.0316372 L220.413053,26.3502212 C220.413053,27.4818584 220.604204,28.4439159 220.985841,29.2357301 C221.36781,30.0278761 221.898119,30.6716814 222.577102,31.1661504 C223.255752,31.661615 224.047235,32.0223451 224.952876,32.2483407 C225.858186,32.4743363 226.848119,32.5878319 227.923673,32.5878319 C228.658407,32.5878319 229.408739,32.545354 230.172345,32.4603982 C230.936283,32.3754425 231.67135,32.2058628 232.378872,31.9513274 L232.378872,26.6472345 C232.095796,26.9017699 231.678319,27.0650442 231.12677,27.1353982 C230.575221,27.2060841 230.129535,27.2412611 229.790708,27.2412611 C229.111394,27.2412611 228.566814,27.15 228.156969,26.9654867 C227.746128,26.781969 227.441814,26.5201327 227.24469,26.1806416 C227.046239,25.8411504 226.919137,25.4379425 226.862721,24.9713496 C226.805642,24.5044248 226.777765,23.9887168 226.777765,23.4225664 L226.777765,17.0316372 L231.468584,17.0316372 L232.378872,17.0316372 L235.541482,17.0316372 L235.541482,26.3502212 C235.541482,27.4818584 235.732965,28.4439159 236.114602,29.2357301 C236.496571,30.0278761 237.026881,30.6716814 237.705531,31.1661504 C238.384513,31.661615 239.175996,32.0223451 240.081637,32.2483407 C240.986947,32.4743363 241.976881,32.5878319 243.052434,32.5878319 C243.7875,32.5878319 244.5375,32.545354 245.301106,32.4603982 C246.065044,32.3754425 246.800111,32.2058628 247.507301,31.9513274 L247.507301,26.6472345 C247.224558,26.9017699 246.80708,27.0650442 246.255531,27.1353982 C245.704314,27.2060841 245.258296,27.2412611 244.919137,27.2412611 C244.240487,27.2412611 243.695243,27.15 243.28573,26.9654867 C242.874889,26.781969 242.570575,26.5201327 242.373451,26.1806416 C242.175,25.8411504 242.047898,25.4379425 241.991482,24.9713496 C241.934403,24.5044248 241.906527,23.9887168 241.906527,23.4225664 L241.906527,17.0316372 L247.507301,17.0316372 L247.507301,11.4567478 L241.906527,11.4567478 L241.906527,5.3465708 Z M271.571018,16.5484513 C272.22146,16.5484513 272.829425,16.696792 273.395575,16.9938053 C273.961062,17.2908186 274.399447,17.6661504 274.711062,18.1184735 L278.911726,13.7054204 C277.921128,12.6872788 276.754314,11.9731195 275.411283,11.5626106 C274.067257,11.1530973 272.786947,10.9473451 271.571018,10.9473451 C269.986394,10.9473451 268.49469,11.2018805 267.09458,11.7112832 C265.694137,12.220354 264.477544,12.949115 263.445465,13.8965708 C262.412389,14.8446903 261.599668,15.9829646 261.005642,17.3120575 C260.411615,18.642146 260.114602,20.1272124 260.114602,21.7675885 C260.114602,23.4082965 260.411615,24.8936947 261.005642,26.2227876 C261.599668,27.5528761 262.412389,28.6911504 263.445465,29.6386062 C264.477544,30.5867257 265.694137,31.3144912 267.09458,31.8238938 C268.49469,32.3329646 269.986394,32.5875 271.571018,32.5875 C272.786947,32.5875 274.067257,32.3820796 275.411283,31.9722345 C276.754314,31.5627212 277.921128,30.8478982 278.911726,29.8294248 L274.711062,25.4167035 C274.343031,25.8408186 273.904646,26.2088496 273.395575,26.5198009 C272.886504,26.8314159 272.277876,26.9867257 271.571018,26.9867257 C269.958518,26.9867257 268.70708,26.5058628 267.815708,25.5438053 C266.924668,24.5827434 266.479314,23.3236726 266.479314,21.7675885 C266.479314,20.2121681 266.924668,18.9530973 267.815708,17.9910398 C268.70708,17.029646 269.958518,16.5484513 271.571018,16.5484513 L271.571018,16.5484513 Z M253.982854,1.27300885 C252.964381,1.27300885 252.09458,1.63373894 251.373119,2.35519912 C250.651659,3.07632743 250.291261,3.94612832 250.291261,4.96460177 C250.291261,5.98307522 250.651659,6.85287611 251.373119,7.57400442 C252.09458,8.2954646 252.964381,8.65619469 253.982854,8.65619469 C255.000996,8.65619469 255.870796,8.2954646 256.592257,7.57400442 C257.313717,6.85287611 257.674115,5.98307522 257.674115,4.96460177 C257.674115,3.94612832 257.313717,3.07632743 256.592257,2.35519912 C255.870796,1.63373894 255.000996,1.27300885 253.982854,1.27300885 L253.982854,1.27300885 Z M250.800332,32.0784292 L257.165044,32.0784292 L257.165044,11.4567478 L250.800332,11.4567478 L250.800332,32.0784292 Z M192.780531,11.4567478 L185.694358,11.4567478 L182.172345,17.0575221 L178.52323,11.4567478 L171.012942,11.4567478 L177.886726,21.0461283 L169.739934,32.0784292 L177.165597,32.0784292 L182.002765,25.204646 L186.500442,32.0784292 L194.01073,32.0784292 L186.076327,21.0461283 L192.780531,11.4567478 Z M294.144358,23.0405973 L292.574668,23.0405973 C292.093142,23.0405973 291.492478,23.0618363 290.771018,23.1039823 C290.049889,23.1464602 289.356305,23.2672566 288.691925,23.4647124 C288.026881,23.6631637 287.461394,23.960177 286.994801,24.3557522 C286.527876,24.752323 286.29458,25.3038717 286.29458,26.0107301 C286.29458,26.7743363 286.619469,27.3408186 287.270575,27.707854 C287.921018,28.075885 288.6,28.2597345 289.30719,28.2597345 C289.929093,28.2597345 290.53042,28.1747788 291.110509,28.0048673 C291.689934,27.8352876 292.206637,27.595354 292.659292,27.2837389 C293.111615,26.9727876 293.472345,26.5768805 293.741482,26.0956858 C294.009956,25.614823 294.144358,25.0493363 294.144358,24.3982301 L294.144358,23.0405973 Z M300,21.597677 L300,32.0784292 L294.144358,32.0784292 L294.144358,29.4902655 L294.059735,29.4902655 C293.352212,30.5933628 292.411394,31.3855088 291.237942,31.8663717 C290.063827,32.3469027 288.825996,32.5875 287.525111,32.5875 C286.563053,32.5875 285.636836,32.4530973 284.745796,32.1846239 C283.854757,31.9161504 283.069912,31.5129425 282.390929,30.9753319 C281.711947,30.4380531 281.174336,29.7733407 280.778429,28.9808628 C280.38219,28.1893805 280.184403,27.2698009 280.184403,26.2227876 C280.184403,25.0347345 280.403097,24.0308628 280.842146,23.210177 C281.280531,22.3901549 281.874558,21.7111726 282.624226,21.1735619 C283.373562,20.636615 284.229425,20.2188053 285.191482,19.921792 C286.152876,19.6247788 287.149779,19.4060841 288.182854,19.2640487 C289.215265,19.1230088 290.247345,19.0380531 291.28042,19.0095133 C292.3125,18.9816372 293.267257,18.9670354 294.144358,18.9670354 C294.144358,17.8360619 293.741482,16.9377212 292.935066,16.272677 C292.128982,15.6082965 291.174226,15.2754425 290.071128,15.2754425 C289.024115,15.2754425 288.069358,15.4948009 287.206858,15.9331858 C286.343695,16.3722345 285.573451,16.9728982 284.894469,17.7365044 L281.499889,14.256969 C282.687942,13.1538717 284.073451,12.3265487 285.658075,11.775 C287.242035,11.2231195 288.883075,10.9473451 290.580199,10.9473451 C292.447235,10.9473451 293.981416,11.1809735 295.184071,11.6475664 C296.386062,12.1141593 297.348119,12.8004425 298.069248,13.7054204 C298.790708,14.6110619 299.292478,15.7211283 299.575553,17.0362832 C299.858296,18.3517699 300,19.872677 300,21.597677 L300,21.597677 Z M132.354425,2.0369469 L125.735177,2.0369469 L125.735177,32.0784292 L144.617257,32.0784292 L144.617257,25.9682522 L132.354425,25.9682522 L132.354425,2.0369469 Z M160.952987,11.4567478 L167.317699,11.4567478 L167.317699,32.0784292 L161.207522,32.0784292 L161.207522,29.2778761 L161.122566,29.2778761 C160.895907,29.6744469 160.606195,30.070354 160.252765,30.4659292 C159.898673,30.8625 159.46792,31.2159292 158.958518,31.5268805 C158.449447,31.8384956 157.869358,32.0923673 157.218916,32.2904867 C156.56781,32.4882743 155.861283,32.5875 155.097345,32.5875 C153.484845,32.5875 152.176327,32.3396018 151.172456,31.8451327 C150.16792,31.3503319 149.390376,30.6643805 148.838827,29.7872788 C148.286947,28.9105088 147.919248,27.8777655 147.735398,26.6897124 C147.551217,25.5016593 147.459624,24.2147124 147.459624,22.828208 L147.459624,11.4567478 L153.824336,11.4567478 L153.824336,21.555531 C153.824336,22.1495575 153.845575,22.764823 153.888053,23.4009956 C153.930531,24.0375 154.057965,24.6248894 154.270022,25.1621681 C154.48208,25.6997788 154.806969,26.1378319 155.246018,26.477323 C155.684071,26.8168142 156.313274,26.9867257 157.13396,26.9867257 C157.954314,26.9867257 158.619358,26.8380531 159.128429,26.5410398 C159.6375,26.2440265 160.026106,25.8481195 160.295243,25.3529867 C160.563717,24.8585177 160.740929,24.2996681 160.825553,23.6771018 C160.910509,23.0551991 160.952987,22.4040929 160.952987,21.7251106 L160.952987,11.4567478 Z"></path>
        </g>
    </g>
</svg>