<svg width="180" height="90" viewBox="0 0 180 90" fill="none" xmlns="http://www.w3.org/2000/svg">
<g clipPath="url(#clip0_1798_32480)">
<path d="M88.9907 47.8453C87.3387 47.8453 85.9607 54.3233 84.6146 54.2578C83.4776 54.2036 84.427 49.789 82.6855 49.7776C81.6178 49.7705 81.2975 51.5418 80.8098 53.0551C80.7824 53.142 79.9932 56.2014 78.7898 56.2014C78.0266 56.2014 77.36 55.5987 77.36 53.8146C77.36 52.981 77.3181 51.7384 76.3081 51.5346C74.5594 51.177 74.9591 52.9511 73.4225 52.6646C69.2743 51.8923 66.1347 60.3054 68.6611 61.4326C71.6911 62.782 73.8914 57.4811 74.7946 57.6279C75.4843 57.739 75.037 60.0218 77.207 59.8765C78.9774 59.7582 80.3726 56.1487 81.0623 56.1915C81.6726 56.2285 81.1402 58.3632 82.6667 58.443C84.4544 58.5356 85.1917 55.6058 86.0055 55.593C86.2104 55.593 86.294 55.7355 86.2811 56.4622C86.258 57.4412 86.1252 69.8571 86.105 70.2646C86.0675 71.0298 86.4426 71.094 86.6115 71.094C86.7269 71.094 88.4439 71.0583 88.7757 71.0455C89.1076 71.0327 89.1638 70.7249 89.1595 70.5396C89.1595 70.4641 89.3976 52.4609 89.4149 48.5621C89.4221 47.8453 89.1162 47.8453 88.9907 47.8453ZM74.2651 55.2553C73.851 56.723 72.1715 59.1369 71.3794 59.211C71.1457 59.2338 70.8023 59.1113 70.8181 58.5812C70.8484 57.3414 72.8093 54.5299 73.6187 54.3162C74.1756 54.1708 74.4209 54.7038 74.2651 55.2581V55.2553Z" fill="white"/>
<path d="M140.65 39.8402C137.427 41.8509 138.053 34.4139 136.087 34.4139C133.947 34.4139 133.322 38.8228 132.56 38.8969C131.627 38.9881 132.908 35.665 131.058 35.7391C129.02 35.8218 127.884 43.1219 126.399 42.5577C124.88 41.9777 125.967 38.1203 124.26 37.8381C123.38 37.6956 123.198 38.3896 122.673 38.7259C121.886 39.2289 120.475 38.354 118.259 40.9047C115.751 43.7874 114.985 48.4443 116.897 48.7563C119.47 49.1838 121.814 44.8462 122.409 44.289C123.237 43.511 122.775 46.5348 125.006 46.579C127.365 46.626 128.073 42.7814 128.757 42.8184C129.346 42.8512 128.663 44.8348 129.787 44.9773C132.221 45.2836 133.555 38.9824 134.557 39.1206C135.56 39.2588 135.182 43.0165 137.587 43.253C139.635 43.454 141.037 40.6881 141.228 40.2848C141.418 39.8815 141.101 39.5595 140.65 39.8402ZM122.309 41.8224C121.843 43.1319 120.495 45.2423 119.667 45.3848C119.379 45.4347 119.038 45.1582 119.06 44.6723C119.112 43.5466 121.022 41.1569 121.801 40.9802C122.326 40.8576 122.501 41.288 122.309 41.8224Z" fill="white"/>
<path d="M75.451 65.9983C76.0281 66.2733 76.8231 66.7848 76.4148 67.7082C76.1262 68.3623 75.8448 68.8739 75.7843 68.9765C75.4293 69.575 74.5708 69.9341 73.5435 69.4553C71.9016 68.6886 63.08 64.5291 62.8001 64.3994C62.4885 64.2569 61.9849 64.361 61.9835 65.2159C61.982 66.0709 61.9835 67.2693 61.9835 67.5358C61.9835 67.8493 62.0268 68.6217 61.3775 69.0762C60.6878 69.5593 59.5595 70.2162 59.3575 70.3217C59.069 70.4642 58.3475 71.0213 58.3389 69.8585C58.3201 67.5472 58.3187 63.258 58.3201 63.0186C58.3216 62.7792 58.3735 62.3232 57.6766 62.0097C57.0504 61.7247 53.0595 59.8723 52.8099 59.7526C52.4896 59.6101 52.2487 59.0401 52.9023 58.651C53.6785 58.1879 57.5612 55.9436 57.8296 55.7569C58.2797 55.4391 58.2797 55.1356 58.284 54.2122C58.284 53.172 58.2249 39.6546 58.2321 39.4366C58.2451 39.0846 58.1975 38.7925 58.8092 38.4077L60.4772 37.3404C60.8566 37.0967 62.0224 36.6137 62.0037 37.9104C61.9921 38.7839 62.0037 51.1499 62.0037 51.4791C62.0037 51.9308 62.223 52.6191 62.9617 52.0819C71.7962 45.6367 72.9693 40.1875 71.209 36.5838C67.6135 29.2223 48.933 40.9727 40.8502 47.5561C39.5805 48.5892 39.6108 48.1261 39.6094 47.6331C39.6094 47.0431 39.6353 44.8572 39.683 44.4539C39.7537 43.874 39.8994 41.9901 41.6467 40.7376C43.3377 39.5263 66.4996 24.7906 73.2304 34.261C76.5129 38.8794 74.5088 46.1696 62.842 54.6383C62.1292 55.1556 61.9979 55.3251 61.9979 56.2599C61.9979 57.1947 61.9763 58.604 61.9979 58.8719C62.0196 59.1398 62.047 59.7041 62.6097 59.9863C63.1724 60.2684 74.9676 65.766 75.451 65.9983Z" fill="white"/>
<path d="M97.6379 47.1178C96.7795 46.1673 95.0596 46.183 93.7423 46.9881C91.9965 48.0497 91.5319 49.7098 92.3889 50.6603C93.246 51.6107 95.2977 51.4098 96.5544 50.5848C97.9857 49.6414 98.495 48.0682 97.6379 47.1178Z" fill="white"/>
<path d="M110.709 21.7854C114.817 25.7753 107.823 33.3491 106.131 35.2971C105.372 36.1706 104.669 37.4716 105.86 38.717C107.05 39.9625 108.324 41.1552 109.36 42.1028C110.638 43.2713 110.259 45.4586 109.449 46.6442C108.911 47.4308 107.705 48.8216 106.317 50.5743C104.929 52.327 103.662 53.9359 103.521 54.1126C103.13 54.5817 102.9 55.1607 102.862 55.767C102.825 56.3732 102.982 56.9756 103.311 57.4883C104.806 59.7769 104.949 59.7427 105.901 58.1096C107.489 55.3893 109.578 52.8614 111.169 51.0702C112.037 50.1028 112.844 49.0835 113.585 48.0179C115.027 45.9873 115.162 43.8185 113.707 42.5688C111.781 40.9129 109.553 39.4666 107.714 38.0801C106.65 37.2807 107.388 36.2946 108.524 35.4538C112.564 32.4614 118.216 27.4582 115.626 21.432C113.121 15.6024 101.326 20.0996 100.849 32.1607C100.678 36.4627 101.255 48.3585 100.932 51.3353C100.743 53.068 101.411 52.8742 102.052 52.6177C102.638 52.3783 104.89 51.2911 104.773 48.4582C104.656 45.6254 104.395 33.3235 104.308 32.0481C103.876 25.4105 108.043 19.1919 110.709 21.7854Z" fill="white"/>
</g>
<defs>
<clipPath id="clip0_1798_32480">
<rect width="101.7" height="52.2" fill="white" transform="translate(39.5996 18.9002)"/>
</clipPath>
</defs>
</svg>
