<svg width="160" height="160" viewBox="0 0 160 160" fill="none" xmlns="http://www.w3.org/2000/svg">
<rect width="160" height="160" fill="white"/>
<path d="M144 79.5005C144 83.3329 143.307 86.9062 141.92 90.2207C140.534 93.5351 138.652 96.4352 136.275 98.9211C133.898 101.407 131.125 103.375 127.955 104.825C124.786 106.275 121.369 107 117.705 107C114.04 107 110.623 106.275 107.454 104.825C104.285 103.375 101.511 101.407 99.1344 98.9211C96.7574 96.4352 94.8756 93.5351 93.4891 90.2207C92.1025 86.9062 91.4092 83.3329 91.4092 79.5005C91.4092 75.6682 92.1025 72.0948 93.4891 68.7804C94.8756 65.466 96.7574 62.5658 99.1344 60.08C101.511 57.5942 104.285 55.6262 107.454 54.1762C110.623 52.7261 114.04 52.0011 117.705 52.0011C121.369 52.0011 124.786 52.7261 127.955 54.1762C131.125 55.6262 133.898 57.5942 136.275 60.08C138.652 62.5658 140.534 65.466 141.92 68.7804C143.307 72.0948 144 75.6682 144 79.5005Z" fill="black"/>
<path d="M67.3428 79.2243C67.3428 83.0183 66.6659 86.5559 65.3123 89.8372C63.9586 93.1185 62.1215 95.9896 59.8009 98.4506C57.4803 100.912 54.7729 102.86 51.6788 104.295C48.5847 105.731 45.2489 106.449 41.6713 106.449C38.0938 106.449 34.7579 105.731 31.6638 104.295C28.5697 102.86 25.8624 100.912 23.5418 98.4506C21.2212 95.9896 19.3841 93.1185 18.0304 89.8372C16.6767 86.5559 15.9999 83.0183 15.9999 79.2243C15.9999 75.4303 16.6767 71.8926 18.0304 68.6113C19.3841 65.33 21.2212 62.4589 23.5418 59.9979C25.8624 57.537 28.5697 55.5887 31.6638 54.1531C34.7579 52.7176 38.0938 51.9998 41.6713 51.9998C45.2489 51.9998 48.5847 52.7176 51.6788 54.1531C54.773 55.5887 57.4803 57.537 59.8009 59.9979C62.1215 62.4589 63.9586 65.33 65.3123 68.6113C66.6659 71.8926 67.3428 75.4303 67.3428 79.2243Z" fill="black"/>
</svg>
